<?xml version="1.0" encoding="iso-8859-1"?>
<!-- Generator: Adobe Illustrator 18.0.0, SVG Export Plug-In . SVG Version: 6.00 Build 0)  -->
<!DOCTYPE svg PUBLIC "-//W3C//DTD SVG 1.1//EN" "http://www.w3.org/Graphics/SVG/1.1/DTD/svg11.dtd">
<svg version="1.1" id="Capa_1" xmlns="http://www.w3.org/2000/svg" xmlns:xlink="http://www.w3.org/1999/xlink" x="0px" y="0px"
	 viewBox="0 0 297 297" style="enable-background:new 0 0 297 297;" xml:space="preserve">
<g>
	<path d="M86.891,84.717c-30.923,0-56.082,25.158-56.082,56.082c0,30.925,25.159,56.084,56.082,56.084
		c30.924,0,56.083-25.159,56.083-56.084C142.974,109.875,117.814,84.717,86.891,84.717z M86.891,177.133
		c-20.034,0-36.333-16.299-36.333-36.334c0-20.034,16.299-36.333,36.333-36.333c20.035,0,36.334,16.299,36.334,36.333
		C123.225,160.834,106.926,177.133,86.891,177.133z"/>
	<circle cx="86.891" cy="140.8" r="15.403"/>
	<path d="M210.112,84.717c-30.924,0-56.083,25.158-56.083,56.082c0,30.924,25.159,56.083,56.083,56.083
		c30.923,0,56.082-25.159,56.082-56.083C266.194,109.875,241.035,84.717,210.112,84.717z M210.112,177.133
		c-20.035,0-36.334-16.299-36.334-36.334c0-20.034,16.299-36.333,36.334-36.333c20.034,0,36.333,16.299,36.333,36.333
		C246.445,160.834,230.146,177.133,210.112,177.133z"/>
	<circle cx="210.112" cy="140.8" r="15.403"/>
	<path d="M297,140.799c0-27.465-12.813-51.99-32.772-67.925c15.286-2.958,32.77-14.593,32.77-39.894
		c0-5.453-4.422-9.875-9.875-9.875c-5.453,0-9.875,4.422-9.875,9.875c0,8.771-3.011,14.455-9.477,17.883
		c-5.52,2.925-11.465,3.047-11.452,3.048h-46.207h-0.001c-23.512,0.001-45.389,9.204-61.61,25.599
		c-16.22-16.395-38.098-25.599-61.611-25.599H40.753c-0.059-0.001-6.004-0.123-11.523-3.048c-6.467-3.428-9.477-9.111-9.477-17.883
		c0-5.453-4.422-9.875-9.875-9.875c-5.453,0-9.875,4.422-9.875,9.875c0,25.303,17.484,36.936,32.771,39.895
		C12.814,88.809,0,113.334,0,140.799c0,0,0.985,11.172,0.922,14.904c-0.037,2.182-4.776,53.554,23.854,85.063
		c14.178,15.603,33.711,23.514,58.059,23.514h53.972l3.479,5.218c1.831,2.747,4.914,4.397,8.216,4.397
		c3.302,0,6.385-1.65,8.216-4.397l3.479-5.218h53.972c24.348,0,43.881-7.911,58.059-23.514
		c28.63-31.509,23.893-82.881,23.854-85.063C296.017,151.971,297,140.799,297,140.799z M82.835,244.53
		c-18.779,0-32.973-5.558-43.391-16.989c-6.628-7.273-10.997-16.208-13.861-25.229c15.725,15.672,37.403,25.376,61.306,25.376
		c8.05,0,15.899-1.105,23.404-3.181l13.347,20.023H82.835z M148.501,246.218l-19.549-29.323c7.122-3.944,13.706-8.899,19.548-14.804
		c5.843,5.904,12.428,10.86,19.55,14.804L148.501,246.218z M257.609,227.485c-10.423,11.47-24.633,17.045-43.442,17.045h-40.805
		l13.347-20.023c7.505,2.076,15.354,3.181,23.403,3.181c23.929,0,45.629-9.724,61.358-25.427
		C268.609,211.261,264.242,220.186,257.609,227.485z M210.112,207.939c-21.313,0-40.892-9.791-53.718-26.862
		c-1.864-2.481-4.789-3.942-7.895-3.942s-6.03,1.461-7.895,3.943c-12.824,17.07-32.403,26.861-53.717,26.861
		c-37.02,0-67.139-30.119-67.139-67.141c0-37.02,30.118-67.139,67.139-67.139c21.314,0,40.893,9.791,53.717,26.861
		c1.864,2.483,4.789,3.944,7.895,3.944s6.03-1.461,7.895-3.943c12.825-17.071,32.404-26.862,53.718-26.862
		c37.021,0,67.139,30.119,67.139,67.139C277.251,177.82,247.133,207.939,210.112,207.939z"/>
</g>
<g>
</g>
<g>
</g>
<g>
</g>
<g>
</g>
<g>
</g>
<g>
</g>
<g>
</g>
<g>
</g>
<g>
</g>
<g>
</g>
<g>
</g>
<g>
</g>
<g>
</g>
<g>
</g>
<g>
</g>
</svg>
