<?xml version="1.0" encoding="UTF-8" standalone="no"?>
<svg width="297px" height="251px" viewBox="0 0 297 251" version="1.1" xmlns="http://www.w3.org/2000/svg" xmlns:xlink="http://www.w3.org/1999/xlink" xmlns:sketch="http://www.bohemiancoding.com/sketch/ns">
    <!-- Generator: Sketch 3.5 (25232) - http://www.bohemiancoding.com/sketch -->
    <title>owl</title>
    <desc>Created with Sketch.</desc>
    <defs></defs>
    <g id="Page-1" stroke="none" stroke-width="1" fill="none" fill-rule="evenodd" sketch:type="MSPage">
        <g id="owl" sketch:type="MSLayerGroup" fill="#735F96">
            <g id="Group" sketch:type="MSShapeGroup">
                <path d="M86.891,61.717 C55.968,61.717 30.809,86.875 30.809,117.799 C30.809,148.724 55.968,173.883 86.891,173.883 C117.815,173.883 142.974,148.724 142.974,117.799 C142.974,86.875 117.814,61.717 86.891,61.717 L86.891,61.717 Z M86.891,154.133 C66.857,154.133 50.558,137.834 50.558,117.799 C50.558,97.765 66.857,81.466 86.891,81.466 C106.926,81.466 123.225,97.765 123.225,117.799 C123.225,137.834 106.926,154.133 86.891,154.133 L86.891,154.133 Z" id="Shape"></path>
                <circle id="Oval" cx="86.891" cy="117.8" r="15.403"></circle>
                <path d="M210.112,61.717 C179.188,61.717 154.029,86.875 154.029,117.799 C154.029,148.723 179.188,173.882 210.112,173.882 C241.035,173.882 266.194,148.723 266.194,117.799 C266.194,86.875 241.035,61.717 210.112,61.717 L210.112,61.717 Z M210.112,154.133 C190.077,154.133 173.778,137.834 173.778,117.799 C173.778,97.765 190.077,81.466 210.112,81.466 C230.146,81.466 246.445,97.765 246.445,117.799 C246.445,137.834 230.146,154.133 210.112,154.133 L210.112,154.133 Z" id="Shape"></path>
                <circle id="Oval" cx="210.112" cy="117.8" r="15.403"></circle>
                <path d="M297,117.799 C297,90.334 284.187,65.809 264.228,49.874 C279.514,46.916 296.998,35.281 296.998,9.98 C296.998,4.527 292.576,0.105 287.123,0.105 C281.67,0.105 277.248,4.527 277.248,9.98 C277.248,18.751 274.237,24.435 267.771,27.863 C262.251,30.788 256.306,30.91 256.319,30.911 L210.112,30.911 L210.111,30.911 C186.599,30.912 164.722,40.115 148.501,56.51 C132.281,40.115 110.403,30.911 86.89,30.911 L40.753,30.911 C40.694,30.91 34.749,30.788 29.23,27.863 C22.763,24.435 19.753,18.752 19.753,9.98 C19.753,4.527 15.331,0.105 9.878,0.105 C4.425,0.105 0.003,4.527 0.003,9.98 C0.003,35.283 17.487,46.916 32.774,49.875 C12.814,65.809 0,90.334 0,117.799 C0,117.799 0.985,128.971 0.922,132.703 C0.885,134.885 -3.854,186.257 24.776,217.766 C38.954,233.369 58.487,241.28 82.835,241.28 L136.807,241.28 L140.286,246.498 C142.117,249.245 145.2,250.895 148.502,250.895 C151.804,250.895 154.887,249.245 156.718,246.498 L160.197,241.28 L214.169,241.28 C238.517,241.28 258.05,233.369 272.228,217.766 C300.858,186.257 296.121,134.885 296.082,132.703 C296.017,128.971 297,117.799 297,117.799 L297,117.799 Z M82.835,221.53 C64.056,221.53 49.862,215.972 39.444,204.541 C32.816,197.268 28.447,188.333 25.583,179.312 C41.308,194.984 62.986,204.688 86.889,204.688 C94.939,204.688 102.788,203.583 110.293,201.507 L123.64,221.53 L82.835,221.53 L82.835,221.53 Z M148.501,223.218 L128.952,193.895 C136.074,189.951 142.658,184.996 148.5,179.091 C154.343,184.995 160.928,189.951 168.05,193.895 L148.501,223.218 L148.501,223.218 Z M257.609,204.485 C247.186,215.955 232.976,221.53 214.167,221.53 L173.362,221.53 L186.709,201.507 C194.214,203.583 202.063,204.688 210.112,204.688 C234.041,204.688 255.741,194.964 271.47,179.261 C268.609,188.261 264.242,197.186 257.609,204.485 L257.609,204.485 Z M210.112,184.939 C188.799,184.939 169.22,175.148 156.394,158.077 C154.53,155.596 151.605,154.135 148.499,154.135 C145.393,154.135 142.469,155.596 140.604,158.078 C127.78,175.148 108.201,184.939 86.887,184.939 C49.867,184.939 19.748,154.82 19.748,117.798 C19.748,80.778 49.866,50.659 86.887,50.659 C108.201,50.659 127.78,60.45 140.604,77.52 C142.468,80.003 145.393,81.464 148.499,81.464 C151.605,81.464 154.529,80.003 156.394,77.521 C169.219,60.45 188.798,50.659 210.112,50.659 C247.133,50.659 277.251,80.778 277.251,117.798 C277.251,154.82 247.133,184.939 210.112,184.939 L210.112,184.939 Z" id="Shape"></path>
            </g>
        </g>
    </g>
</svg>